<svg xmlns="http://www.w3.org/2000/svg" width="40" height="40"><rect width="40" height="40" rx="5" ry="5" fill="#EB5F0C"/><path fill="#FFF" d="M19.8 3c6 0 11.1 3.3 13.8 8.3H6C8.7 6.3 13.9 3 19.8 3zm15.9 9.2v4.9h-6.5l-7.5-4.9h14zm-17.3 0l-7.9 4.9H4v-4.9h14.4zm1.6.1l7.4 4.9H12.2l7.8-4.9zM5 22.5l-.2.7H4l.6.5-.2.7.6-.5.6.5-.2-.7.6-.5h-.8l-.2-.7zm28.2 3.8l-.3.7h-.8l.6.5-.2.7.6-.5.6.5-.2-.7.6-.5h-.8l-.1-.7zm-26.7 0l-.2.7h-.8l.6.5-.2.7.6-.5.6.5-.2-.7.6-.5h-.8l-.2-.7zm24.4 4.4l.6.5h-1.2l.6-.5zM35.7 18v1.2h-.3l-.2-.7-.3.7h-.8l.6.5-.2.7.6-.5.5.4v2.9h-.7l-.2-.7-.2.7h-.8l.6.5-.2.7.6-.5.6.5-.2-.7.6-.4v7.9h-4.1l-.2-.7.5-.5h-.8l-.2-.7-.2.7h-.8l.6.5-.2.7h-.8V18h6.2zm-7.1 0v13.2h-2.7V18h2.7zm-14.8 0v13.2h-2.6V18h2.6zm3.7 0v13.2h-2.8V18h2.8zm3.7 0v13.2h-2.8V18h2.8zm-11 0v13.2h-.8l-.2-.7.6-.5H9l-.2-.7-.3.7h-.8l.6.5-.2.7H3.9V20.4l.6-.4.6.5-.2-.7.6-.5h-.8l-.2-.7-.1.3-.1.4H4V18h6.2zM8.8 30.7l.6.5H8.2l.6-.5zM25 18v13.2h-2.8V18H25zm-9.1 15.4l-.2.7h-.8l.6.5-.2.7.6-.5.6.5-.2-.7.6-.5h-.8l-.2-.7zm7.8 0l-.2.7h-.8l.6.5-.2.7.6-.5.6.5-.2-.7.6-.5h-.8l-.2-.7zm-11.6-1.3l-.2.5h-.8l.6.5-.2.7.6-.5.6.5-.2-.7.6-.5h-.8l-.2-.5h15.2l-.2.5h-.8l.6.5v.8l.6-.5.6.5-.2-.8.6-.5h-.8l-.2-.5h1.1v3.5h-8.2l-.2-.5.6-.5H20l-.2-.7-.2.7h-.8l.6.5-.2.5H11v-3.5h1.1zm23.6 0v3.5h-6.1v-3.5h6.1zm-25.5 0v3.5H4v-3.5h6.2z"/></svg>